<svg xmlns="http://www.w3.org/2000/svg" xmlns:xlink="http://www.w3.org/1999/xlink" width="20" height="20" version="1.1" viewBox="0 0 20 20"><title>arrow-outline-up</title><desc>Created with Sketch.</desc><g id="Page-1" fill="none" fill-rule="evenodd" stroke="none" stroke-width="1"><g id="arrow-outline-up" fill="#000"><path id="Combined-Shape" d="M10,0 C4.4771525,-3.55271368e-15 3.55271368e-15,4.4771525 0,10 C0,15.5228475 4.4771525,20 10,20 C15.5228475,20 20,15.5228475 20,10 C20,4.4771525 15.5228475,0 10,0 L10,0 Z M10,2 C5.581722,2 2,5.581722 2,10 C2,14.418278 5.581722,18 10,18 C14.418278,18 18,14.418278 18,10 C18,5.581722 14.418278,2 10,2 L10,2 Z M12,10 L8,10 L8,15 L12,15 L12,10 L12,10 Z M10,5 L5,10 L15,10 L10,5 L10,5 Z"/></g></g></svg>