<svg xmlns="http://www.w3.org/2000/svg" xmlns:xlink="http://www.w3.org/1999/xlink" width="20" height="20" version="1.1" viewBox="0 0 20 20"><title>bluetooth</title><desc>Created with Sketch.</desc><g id="Page-1" fill="none" fill-rule="evenodd" stroke="none" stroke-width="1"><g id="bluetooth" fill="#000"><path id="Combined-Shape" d="M9.41421356,5.55111512e-17 L14.3535534,4.93933983 L15.4142136,6 L14.3535534,7.06066017 L11.4142136,10 L14.3535534,12.9393398 L15.4142136,14 L14.3535534,15.0606602 L9.41421356,20 L9,20 L9,17.2928932 L9,12.4142136 L5.70710678,15.7071068 L4.29289322,14.2928932 L8.58578644,10 L4.29289322,5.70710678 L5.70710678,4.29289322 L9,7.58578644 L9,2.70710678 L9,0 L9.41421356,0 Z M11,4.41421356 L11,7.58578644 L12.5857864,6 L11,4.41421356 Z M12.5857864,14 L11,15.5857864 L11,12.4142136 L12.5857864,14 Z"/></g></g></svg>