<svg xmlns="http://www.w3.org/2000/svg" xmlns:xlink="http://www.w3.org/1999/xlink" width="20" height="20" version="1.1" viewBox="0 0 20 20"><title>border-outer</title><desc>Created with Sketch.</desc><g id="Page-1" fill="none" fill-rule="evenodd" stroke="none" stroke-width="1"><g id="border-outer" fill="#000"><path id="Combined-Shape" d="M2,19 L1,19 L1,1 L2,1 L19,1 L19,2 L19,18 L19,19 L2,19 Z M3,17 L3,3 L17,3 L17,17 L3,17 Z M13,9 L15,9 L15,11 L13,11 L13,9 Z M9,9 L11,9 L11,11 L9,11 L9,9 Z M5,9 L7,9 L7,11 L5,11 L5,9 Z M9,5 L11,5 L11,7 L9,7 L9,5 Z M9,13 L11,13 L11,15 L9,15 L9,13 Z"/></g></g></svg>