<svg xmlns="http://www.w3.org/2000/svg" xmlns:xlink="http://www.w3.org/1999/xlink" width="20" height="20" version="1.1" viewBox="0 0 20 20"><title>border-all</title><desc>Created with Sketch.</desc><g id="Page-1" fill="none" fill-rule="evenodd" stroke="none" stroke-width="1"><g id="border-all" fill="#000"><path id="Combined-Shape" d="M11,11 L11,17 L17,17 L17,11 L11,11 Z M11,9 L11,3 L17,3 L17,9 L11,9 Z M9,11 L9,17 L3,17 L3,11 L9,11 Z M9,9 L9,3 L3,3 L3,9 L9,9 Z M1,18 L1,1 L2,1 L18,1 L19,1 L19,19 L18,19 L1,19 L1,18 Z"/></g></g></svg>