<svg xmlns="http://www.w3.org/2000/svg" xmlns:xlink="http://www.w3.org/1999/xlink" width="20" height="20" version="1.1" viewBox="0 0 20 20"><title>cheveron-outline-left</title><desc>Created with Sketch.</desc><g id="Page-1" fill="none" fill-rule="evenodd" stroke="none" stroke-width="1"><g id="cheveron-outline-left" fill="#000"><path id="Combined-Shape" d="M7.46446609,9.29289322 L11,5.75735931 L12.4142136,7.17157288 L9.58578644,10 L12.4142136,12.8284271 L11,14.2426407 L6.75735931,10 L7.46446609,9.29289322 L7.46446609,9.29289322 Z M10,20 C15.5228475,20 20,15.5228475 20,10 C20,4.4771525 15.5228475,-5.68434189e-14 10,-5.68434189e-14 C4.4771525,-5.86197757e-14 -5.68434189e-14,4.4771525 -5.77315973e-14,10 C-5.86197757e-14,15.5228475 4.4771525,20 10,20 L10,20 Z M18,10 C18,5.581722 14.418278,2 10,2 C5.581722,2 2,5.581722 2,10 C2,14.418278 5.581722,18 10,18 C14.418278,18 18,14.418278 18,10 L18,10 Z"/></g></g></svg>