<svg xmlns="http://www.w3.org/2000/svg" xmlns:xlink="http://www.w3.org/1999/xlink" width="20" height="20" version="1.1" viewBox="0 0 20 20"><title>computer-desktop</title><desc>Created with Sketch.</desc><g id="Page-1" fill="none" fill-rule="evenodd" stroke="none" stroke-width="1"><g id="computer-desktop" fill="#000"><path id="Combined-Shape" d="M3,19 L7,17 L13,17 L17,19 L17,20 L3,20 L3,19 Z M0,2.00010618 C0,0.895478039 0.898212381,0 1.99079514,0 L18.0092049,0 C19.1086907,0 20,0.890058413 20,2.00010618 L20,14.9998938 C20,16.104522 19.1017876,17 18.0092049,17 L1.99079514,17 C0.891309342,17 0,16.1099416 0,14.9998938 L0,2.00010618 Z M2,2 L18,2 L18,13 L2,13 L2,2 Z"/></g></g></svg>