<svg xmlns="http://www.w3.org/2000/svg" xmlns:xlink="http://www.w3.org/1999/xlink" width="20" height="20" version="1.1" viewBox="0 0 20 20"><title>indent-decrease</title><desc>Created with Sketch.</desc><g id="Page-1" fill="none" fill-rule="evenodd" stroke="none" stroke-width="1"><g id="indent-decrease" fill="#000"><path id="Combined-Shape" d="M1,1 L19,1 L19,3 L1,3 L1,1 Z M7,9 L19,9 L19,11 L7,11 L7,9 Z M1,17 L19,17 L19,19 L1,19 L1,17 Z M7,5 L19,5 L19,7 L7,7 L7,5 Z M7,13 L19,13 L19,15 L7,15 L7,13 Z M5,6 L1,10 L5,14 L5,6 Z"/></g></g></svg>