<svg xmlns="http://www.w3.org/2000/svg" xmlns:xlink="http://www.w3.org/1999/xlink" width="20" height="20" version="1.1" viewBox="0 0 20 20"><title>library</title><desc>Created with Sketch.</desc><g id="Page-1" fill="none" fill-rule="evenodd" stroke="none" stroke-width="1"><g id="library" fill="#000"><path id="Combined-Shape" d="M0,6 L10,0 L20,6 L20,8 L0,8 L0,6 Z M0,18 L20,18 L20,20 L0,20 L0,18 Z M2,16 L18,16 L18,18 L2,18 L2,16 Z M2,8 L6,8 L6,16 L2,16 L2,8 Z M8,8 L12,8 L12,16 L8,16 L8,8 Z M14,8 L18,8 L18,16 L14,16 L14,8 Z"/></g></g></svg>