<svg xmlns="http://www.w3.org/2000/svg" xmlns:xlink="http://www.w3.org/1999/xlink" width="20" height="20" version="1.1" viewBox="0 0 20 20"><title>mic</title><desc>Created with Sketch.</desc><g id="Page-1" fill="none" fill-rule="evenodd" stroke="none" stroke-width="1"><g id="mic" fill="#000"><path id="Combined-Shape" d="M11,17.9378859 C14.9395595,17.4450043 18,14.0790094 18,10 L16,10 L16,10.0018149 C16,13.314521 13.3069658,16 10,16 C6.6862915,16 4,13.3172241 4,10.0018149 L4,10 L2,10 C2,14.0713165 5.05368842,17.4447356 9,17.9379599 L9,20 L11,20 L11,17.9378859 Z M6,3.99310226 C6,1.78777278 7.79535615,0 10,0 C12.209139,0 14,1.78732987 14,3.99310226 L14,10.0068977 C14,12.2122272 12.2046438,14 10,14 C7.790861,14 6,12.2126701 6,10.0068977 L6,3.99310226 Z"/></g></g></svg>