<svg xmlns="http://www.w3.org/2000/svg" xmlns:xlink="http://www.w3.org/1999/xlink" width="20" height="20" version="1.1" viewBox="0 0 20 20"><title>printer</title><desc>Created with Sketch.</desc><g id="Page-1" fill="none" fill-rule="evenodd" stroke="none" stroke-width="1"><g id="printer" fill="#000"><path id="Combined-Shape" d="M16,16 L20,16 L20,7.99961498 C20,6.88743329 19.1086907,6 18.0092049,6 L1.99079514,6 C0.898212381,6 0,6.89525812 0,7.99961498 L0,16 L4,16 L4,10 L16,10 L16,16 Z M4,10 L16,10 L16,20 L4,20 L4,10 Z M6,12 L14,12 L14,18 L6,18 L6,12 Z M4,0 L16,0 L16,5 L4,5 L4,0 Z M2,8 L4,8 L4,10 L2,10 L2,8 Z M6,8 L8,8 L8,10 L6,10 L6,8 Z"/></g></g></svg>