<svg xmlns="http://www.w3.org/2000/svg" xmlns:xlink="http://www.w3.org/1999/xlink" width="20" height="20" version="1.1" viewBox="0 0 20 20"><title>tablet</title><desc>Created with Sketch.</desc><g id="Page-1" fill="none" fill-rule="evenodd" stroke="none" stroke-width="1"><g id="tablet" fill="#000"><path id="Combined-Shape" d="M2,1.99079514 C2,0.891309342 2.89451376,0 3.99406028,0 L16.0059397,0 C17.1072288,0 18,0.898212381 18,1.99079514 L18,18.0092049 C18,19.1086907 17.1054862,20 16.0059397,20 L3.99406028,20 C2.8927712,20 2,19.1017876 2,18.0092049 L2,1.99079514 Z M4,2 L16,2 L16,16 L4,16 L4,2 Z M10,19 C10.5522847,19 11,18.5522847 11,18 C11,17.4477153 10.5522847,17 10,17 C9.44771525,17 9,17.4477153 9,18 C9,18.5522847 9.44771525,19 10,19 Z"/></g></g></svg>