<svg xmlns="http://www.w3.org/2000/svg" xmlns:xlink="http://www.w3.org/1999/xlink" width="20" height="20" version="1.1" viewBox="0 0 20 20"><title>view-carousel</title><desc>Created with Sketch.</desc><g id="Page-1" fill="none" fill-rule="evenodd" stroke="none" stroke-width="1"><g id="view-carousel" fill="#000"><path id="Combined-Shape" d="M14,5.5 L14,4 L6,4 L6,5.5 L6,14.5 L6,16 L14,16 L14,14.5 L14,5.5 L14,5.5 Z M16,6 L18,6 L18,14 L16,14 L16,6 L16,6 Z M4,6 L2,6 L2,14 L4,14 L4,6 L4,6 Z M16,16 L16,18 L4,18 L4,16 L0,16 L0,4 L4,4 L4,2 L16,2 L16,4 L20,4 L20,16 L16,16 L16,16 Z"/></g></g></svg>