<svg xmlns="http://www.w3.org/2000/svg" xmlns:xlink="http://www.w3.org/1999/xlink" width="20" height="20" version="1.1" viewBox="0 0 20 20"><title>view-tile</title><desc>Created with Sketch.</desc><g id="Page-1" fill="none" fill-rule="evenodd" stroke="none" stroke-width="1"><g id="view-tile" fill="#000"><path id="Combined-Shape" d="M0,0 L9,0 L9,9 L0,9 L0,0 Z M2,2 L7,2 L7,7 L2,7 L2,2 Z M0,11 L9,11 L9,20 L0,20 L0,11 Z M2,13 L7,13 L7,18 L2,18 L2,13 Z M11,0 L20,0 L20,9 L11,9 L11,0 Z M13,2 L18,2 L18,7 L13,7 L13,2 Z M11,11 L20,11 L20,20 L11,20 L11,11 Z M13,13 L18,13 L18,18 L13,18 L13,13 Z"/></g></g></svg>