<svg xmlns="http://www.w3.org/2000/svg" xmlns:xlink="http://www.w3.org/1999/xlink" width="20" height="20" version="1.1" viewBox="0 0 20 20"><title>watch</title><desc>Created with Sketch.</desc><g id="Page-1" fill="none" fill-rule="evenodd" stroke="none" stroke-width="1"><g id="watch" fill="#000"><path id="Combined-Shape" d="M11,9 L11,7 L9,7 L9,10 L9,11 L13,11 L13,9 L11,9 Z M14.8207525,15.0754849 C16.163095,13.8001046 17,11.9977871 17,10 C17,8.00221286 16.163095,6.19989536 14.8207525,4.92451506 L14,0 L6,0 L5.17924749,4.92451506 C3.83690502,6.19989536 3,8.00221286 3,10 C3,11.9977871 3.83690502,13.8001046 5.17924749,15.0754849 L6,20 L14,20 L14.8207525,15.0754849 Z M10,15 C12.7614237,15 15,12.7614237 15,10 C15,7.23857625 12.7614237,5 10,5 C7.23857625,5 5,7.23857625 5,10 C5,12.7614237 7.23857625,15 10,15 Z"/></g></g></svg>